<mxfile host="app.diagrams.net" agent="Mozilla/5.0 (Windows NT 10.0; Win64; x64) AppleWebKit/537.36 (KHTML, like Gecko) Chrome/134.0.0.0 Safari/537.36" version="26.1.1">
  <diagram name="第 1 页" id="k40KUhnG5UWYb8Obpm_M">
    <mxGraphModel dx="446" dy="594" grid="1" gridSize="10" guides="1" tooltips="1" connect="1" arrows="1" fold="1" page="1" pageScale="1" pageWidth="827" pageHeight="1169" math="0" shadow="0">
      <root>
        <mxCell id="0" />
        <mxCell id="1" parent="0" />
        <mxCell id="VnnVtrXKFZIncb8XVv-m-1" value="proto协议部分" style="text;html=1;align=center;verticalAlign=middle;whiteSpace=wrap;rounded=0;" vertex="1" parent="1">
          <mxGeometry x="50" y="180" width="80" height="30" as="geometry" />
        </mxCell>
        <mxCell id="VnnVtrXKFZIncb8XVv-m-2" value="配置部分" style="text;html=1;align=center;verticalAlign=middle;whiteSpace=wrap;rounded=0;" vertex="1" parent="1">
          <mxGeometry x="640" y="20" width="60" height="30" as="geometry" />
        </mxCell>
        <mxCell id="VnnVtrXKFZIncb8XVv-m-3" value="代码架构" style="text;html=1;align=center;verticalAlign=middle;whiteSpace=wrap;rounded=0;" vertex="1" parent="1">
          <mxGeometry x="760" y="20" width="60" height="30" as="geometry" />
        </mxCell>
        <mxCell id="VnnVtrXKFZIncb8XVv-m-6" value="" style="rounded=0;whiteSpace=wrap;html=1;fillColor=default;" vertex="1" parent="1">
          <mxGeometry x="40" y="220" width="100" height="100" as="geometry" />
        </mxCell>
        <mxCell id="VnnVtrXKFZIncb8XVv-m-8" value="msg_head" style="rounded=1;whiteSpace=wrap;html=1;" vertex="1" parent="1">
          <mxGeometry x="60" y="230" width="60" height="30" as="geometry" />
        </mxCell>
        <mxCell id="VnnVtrXKFZIncb8XVv-m-9" value="msg_body" style="rounded=1;whiteSpace=wrap;html=1;" vertex="1" parent="1">
          <mxGeometry x="60" y="280" width="60" height="30" as="geometry" />
        </mxCell>
        <mxCell id="VnnVtrXKFZIncb8XVv-m-14" value="每种网络终端，都需要一个消息处理模块" style="text;html=1;align=center;verticalAlign=middle;whiteSpace=wrap;rounded=0;" vertex="1" parent="1">
          <mxGeometry x="154" y="340" width="260" height="30" as="geometry" />
        </mxCell>
        <mxCell id="VnnVtrXKFZIncb8XVv-m-17" value="" style="edgeStyle=orthogonalEdgeStyle;rounded=0;orthogonalLoop=1;jettySize=auto;html=1;" edge="1" parent="1" source="VnnVtrXKFZIncb8XVv-m-15" target="VnnVtrXKFZIncb8XVv-m-16">
          <mxGeometry relative="1" as="geometry" />
        </mxCell>
        <mxCell id="VnnVtrXKFZIncb8XVv-m-22" value="" style="edgeStyle=orthogonalEdgeStyle;rounded=0;orthogonalLoop=1;jettySize=auto;html=1;" edge="1" parent="1" source="VnnVtrXKFZIncb8XVv-m-15" target="VnnVtrXKFZIncb8XVv-m-21">
          <mxGeometry relative="1" as="geometry" />
        </mxCell>
        <mxCell id="VnnVtrXKFZIncb8XVv-m-24" value="" style="edgeStyle=orthogonalEdgeStyle;rounded=0;orthogonalLoop=1;jettySize=auto;html=1;" edge="1" parent="1" source="VnnVtrXKFZIncb8XVv-m-15" target="VnnVtrXKFZIncb8XVv-m-23">
          <mxGeometry relative="1" as="geometry" />
        </mxCell>
        <mxCell id="VnnVtrXKFZIncb8XVv-m-26" value="" style="edgeStyle=orthogonalEdgeStyle;rounded=0;orthogonalLoop=1;jettySize=auto;html=1;" edge="1" parent="1" source="VnnVtrXKFZIncb8XVv-m-15" target="VnnVtrXKFZIncb8XVv-m-25">
          <mxGeometry relative="1" as="geometry" />
        </mxCell>
        <mxCell id="VnnVtrXKFZIncb8XVv-m-28" value="" style="edgeStyle=orthogonalEdgeStyle;rounded=0;orthogonalLoop=1;jettySize=auto;html=1;" edge="1" parent="1" source="VnnVtrXKFZIncb8XVv-m-15" target="VnnVtrXKFZIncb8XVv-m-27">
          <mxGeometry relative="1" as="geometry" />
        </mxCell>
        <mxCell id="VnnVtrXKFZIncb8XVv-m-15" value="MsgBinder" style="rounded=1;whiteSpace=wrap;html=1;" vertex="1" parent="1">
          <mxGeometry x="230" y="380" width="90" height="30" as="geometry" />
        </mxCell>
        <mxCell id="VnnVtrXKFZIncb8XVv-m-16" value="endpoint&amp;nbsp;" style="rounded=1;whiteSpace=wrap;html=1;" vertex="1" parent="1">
          <mxGeometry x="20" y="450" width="90" height="30" as="geometry" />
        </mxCell>
        <mxCell id="VnnVtrXKFZIncb8XVv-m-21" value="mesh" style="rounded=1;whiteSpace=wrap;html=1;" vertex="1" parent="1">
          <mxGeometry x="440" y="450" width="90" height="30" as="geometry" />
        </mxCell>
        <mxCell id="VnnVtrXKFZIncb8XVv-m-23" value="agent" style="rounded=1;whiteSpace=wrap;html=1;" vertex="1" parent="1">
          <mxGeometry x="340" y="450" width="90" height="30" as="geometry" />
        </mxCell>
        <mxCell id="VnnVtrXKFZIncb8XVv-m-25" value="NetWork" style="rounded=1;whiteSpace=wrap;html=1;" vertex="1" parent="1">
          <mxGeometry x="230" y="450" width="90" height="30" as="geometry" />
        </mxCell>
        <mxCell id="VnnVtrXKFZIncb8XVv-m-27" value="NS" style="rounded=1;whiteSpace=wrap;html=1;" vertex="1" parent="1">
          <mxGeometry x="120" y="450" width="90" height="30" as="geometry" />
        </mxCell>
        <mxCell id="VnnVtrXKFZIncb8XVv-m-29" value="通过协议，快速了解代码架构" style="text;html=1;align=center;verticalAlign=middle;whiteSpace=wrap;rounded=0;" vertex="1" parent="1">
          <mxGeometry x="204" y="310" width="160" height="30" as="geometry" />
        </mxCell>
      </root>
    </mxGraphModel>
  </diagram>
</mxfile>
